# This file uses centimeters as units for non-parametric coordinates.

mtllib Crate.mtl
g default
v -0.500000 0.000000 0.500000
v 0.500000 0.000000 0.500000
v -0.500000 1.000000 0.500000
v 0.500000 1.000000 0.500000
v -0.500000 1.000000 -0.500000
v 0.500000 1.000000 -0.500000
v -0.500000 0.000000 -0.500000
v 0.500000 0.000000 -0.500000
v 0.500000 0.100000 -0.400000
v 0.500000 0.100000 0.400000
v 0.500000 0.900000 -0.400000
v 0.500000 0.900000 0.400000
v -0.500000 0.100000 -0.400000
v -0.500000 0.100000 0.400000
v -0.500000 0.900000 0.400000
v -0.500000 0.900000 -0.400000
v -0.400000 0.100000 0.500000
v 0.400000 0.100000 0.500000
v 0.400000 0.900000 0.500000
v -0.400000 0.900000 0.500000
v -0.400000 0.900000 -0.500000
v 0.400000 0.900000 -0.500000
v 0.400000 0.100000 -0.500000
v -0.400000 0.100000 -0.500000
v -0.400000 1.000000 0.400000
v 0.400000 1.000000 0.400000
v 0.400000 1.000000 -0.400000
v -0.400000 1.000000 -0.400000
v -0.400000 0.000000 -0.400000
v 0.400000 0.000000 -0.400000
v 0.400000 0.000000 0.400000
v -0.400000 0.000000 0.400000
v -0.400000 0.100000 0.450000
v 0.400000 0.100000 0.450000
v 0.400000 0.900000 0.450000
v -0.400000 0.900000 0.450000
v -0.400000 0.900000 -0.450000
v 0.400000 0.900000 -0.450000
v 0.400000 0.100000 -0.450000
v -0.400000 0.100000 -0.450000
v 0.450000 0.100000 -0.400000
v 0.450000 0.100000 0.400000
v 0.450000 0.900000 -0.400000
v 0.450000 0.900000 0.400000
v -0.450000 0.100000 -0.400000
v -0.450000 0.100000 0.400000
v -0.450000 0.900000 0.400000
v -0.450000 0.900000 -0.400000
v -0.400000 0.950000 0.400000
v 0.400000 0.950000 0.400000
v 0.400000 0.950000 -0.400000
v -0.400000 0.950000 -0.400000
v -0.400000 0.050000 -0.400000
v 0.400000 0.050000 -0.400000
v 0.400000 0.050000 0.400000
v -0.400000 0.050000 0.400000
vt 0.375000 0.000000
vt 0.625000 0.000000
vt 0.375000 0.250000
vt 0.625000 0.250000
vt 0.375000 0.500000
vt 0.625000 0.500000
vt 0.375000 0.750000
vt 0.625000 0.750000
vt 0.375000 1.000000
vt 0.625000 1.000000
vt 0.875000 0.000000
vt 0.875000 0.250000
vt 0.125000 0.000000
vt 0.125000 0.250000
vt 0.625000 0.000000
vt 0.875000 0.000000
vt 0.875000 0.250000
vt 0.625000 0.250000
vt 0.125000 0.000000
vt 0.375000 0.000000
vt 0.375000 0.250000
vt 0.125000 0.250000
vt 0.375000 0.000000
vt 0.625000 0.000000
vt 0.625000 0.250000
vt 0.375000 0.250000
vt 0.375000 0.500000
vt 0.625000 0.500000
vt 0.625000 0.750000
vt 0.375000 0.750000
vt 0.375000 0.250000
vt 0.625000 0.250000
vt 0.625000 0.500000
vt 0.375000 0.500000
vt 0.375000 0.750000
vt 0.625000 0.750000
vt 0.625000 1.000000
vt 0.375000 1.000000
vt 0.375000 0.000000
vt 0.625000 0.000000
vt 0.625000 0.250000
vt 0.375000 0.250000
vt 0.375000 0.500000
vt 0.625000 0.500000
vt 0.625000 0.750000
vt 0.375000 0.750000
vt 0.625000 0.000000
vt 0.875000 0.000000
vt 0.875000 0.250000
vt 0.625000 0.250000
vt 0.125000 0.000000
vt 0.375000 0.000000
vt 0.375000 0.250000
vt 0.125000 0.250000
vt 0.375000 0.250000
vt 0.625000 0.250000
vt 0.625000 0.500000
vt 0.375000 0.500000
vt 0.375000 0.750000
vt 0.625000 0.750000
vt 0.625000 1.000000
vt 0.375000 1.000000
vn 0.000000 0.000000 1.000000
vn 0.000000 0.000000 1.000000
vn 0.000000 0.000000 1.000000
vn 0.000000 0.000000 1.000000
vn 0.000000 1.000000 0.000000
vn 0.000000 1.000000 0.000000
vn 0.000000 1.000000 0.000000
vn 0.000000 1.000000 0.000000
vn 0.000000 0.000000 -1.000000
vn 0.000000 0.000000 -1.000000
vn 0.000000 0.000000 -1.000000
vn 0.000000 0.000000 -1.000000
vn 0.000000 -1.000000 0.000000
vn 0.000000 -1.000000 0.000000
vn 0.000000 -1.000000 0.000000
vn 0.000000 -1.000000 0.000000
vn 1.000000 0.000000 0.000000
vn 1.000000 0.000000 0.000000
vn 1.000000 0.000000 0.000000
vn 1.000000 0.000000 0.000000
vn -1.000000 0.000000 0.000000
vn -1.000000 0.000000 0.000000
vn -1.000000 0.000000 0.000000
vn -1.000000 0.000000 0.000000
vn 1.000000 -0.000000 0.000000
vn 1.000000 -0.000000 0.000000
vn 1.000000 -0.000000 0.000000
vn 1.000000 -0.000000 0.000000
vn 1.000000 0.000000 0.000000
vn 1.000000 0.000000 0.000000
vn 1.000000 0.000000 0.000000
vn 1.000000 0.000000 0.000000
vn -1.000000 -0.000000 0.000000
vn -1.000000 -0.000000 0.000000
vn -1.000000 -0.000000 0.000000
vn -1.000000 -0.000000 0.000000
vn -1.000000 0.000000 0.000000
vn -1.000000 0.000000 0.000000
vn -1.000000 0.000000 0.000000
vn -1.000000 0.000000 0.000000
vn 0.000000 0.000000 1.000000
vn -0.000000 0.000000 1.000000
vn -0.000000 0.000000 1.000000
vn 0.000000 0.000000 1.000000
vn -0.000000 0.000000 1.000000
vn -0.000000 0.000000 1.000000
vn 0.000000 0.000000 1.000000
vn 0.000000 0.000000 1.000000
vn 0.000000 0.000000 -1.000000
vn 0.000000 0.000000 -1.000000
vn 0.000000 0.000000 -1.000000
vn 0.000000 0.000000 -1.000000
vn 0.000000 0.000000 -1.000000
vn 0.000000 0.000000 -1.000000
vn 0.000000 0.000000 -1.000000
vn 0.000000 0.000000 -1.000000
vn 0.000000 1.000000 0.000000
vn 0.000000 1.000000 0.000000
vn 0.000000 1.000000 0.000000
vn 0.000000 1.000000 0.000000
vn 0.000000 1.000000 -0.000000
vn 0.000000 1.000000 -0.000000
vn 0.000000 1.000000 -0.000000
vn 0.000000 1.000000 -0.000000
vn 0.000000 -1.000000 0.000000
vn 0.000000 -1.000000 0.000000
vn 0.000000 -1.000000 0.000000
vn 0.000000 -1.000000 0.000000
vn 0.000000 -1.000000 0.000000
vn 0.000000 -1.000000 0.000000
vn 0.000000 -1.000000 0.000000
vn 0.000000 -1.000000 0.000000
vn 0.000000 1.000000 0.000000
vn 0.000000 1.000000 0.000000
vn 0.000000 1.000000 0.000000
vn 0.000000 1.000000 0.000000
vn -1.000000 0.000000 0.000000
vn -1.000000 0.000000 0.000000
vn -1.000000 0.000000 0.000000
vn -1.000000 0.000000 0.000000
vn 0.000000 -1.000000 0.000000
vn 0.000000 -1.000000 0.000000
vn 0.000000 -1.000000 0.000000
vn 0.000000 -1.000000 0.000000
vn 1.000000 0.000000 0.000000
vn 1.000000 0.000000 0.000000
vn 1.000000 0.000000 0.000000
vn 1.000000 0.000000 0.000000
vn 0.000000 -1.000000 0.000000
vn 0.000000 -1.000000 0.000000
vn 0.000000 -1.000000 0.000000
vn 0.000000 -1.000000 0.000000
vn -1.000000 0.000000 0.000000
vn -1.000000 0.000000 0.000000
vn -1.000000 0.000000 0.000000
vn -1.000000 0.000000 0.000000
vn 0.000000 1.000000 0.000000
vn 0.000000 1.000000 0.000000
vn 0.000000 1.000000 0.000000
vn 0.000000 1.000000 0.000000
vn 1.000000 0.000000 0.000000
vn 1.000000 0.000000 0.000000
vn 1.000000 0.000000 0.000000
vn 1.000000 0.000000 0.000000
vn 0.000000 1.000000 0.000000
vn 0.000000 1.000000 0.000000
vn 0.000000 1.000000 0.000000
vn 0.000000 1.000000 0.000000
vn -0.000001 0.000000 1.000000
vn -0.000001 0.000000 1.000000
vn -0.000001 0.000000 1.000000
vn -0.000001 0.000000 1.000000
vn 0.000000 -1.000000 0.000000
vn 0.000000 -1.000000 0.000000
vn 0.000000 -1.000000 0.000000
vn 0.000000 -1.000000 0.000000
vn 0.000001 0.000000 -1.000000
vn 0.000001 0.000000 -1.000000
vn 0.000001 0.000000 -1.000000
vn 0.000001 0.000000 -1.000000
vn 0.000000 1.000000 0.000000
vn 0.000000 1.000000 0.000000
vn 0.000000 1.000000 0.000000
vn 0.000000 1.000000 0.000000
vn -0.000001 0.000000 -1.000000
vn -0.000001 0.000000 -1.000000
vn -0.000001 0.000000 -1.000000
vn -0.000001 0.000000 -1.000000
vn 0.000000 -1.000000 0.000000
vn 0.000000 -1.000000 0.000000
vn 0.000000 -1.000000 0.000000
vn 0.000000 -1.000000 0.000000
vn 0.000001 0.000000 1.000000
vn 0.000001 0.000000 1.000000
vn 0.000001 0.000000 1.000000
vn 0.000001 0.000000 1.000000
vn 0.000000 0.000000 -1.000000
vn 0.000000 0.000000 -1.000000
vn 0.000000 0.000000 -1.000000
vn 0.000000 0.000000 -1.000000
vn -1.000000 0.000000 0.000000
vn -1.000000 0.000000 0.000000
vn -1.000000 0.000000 0.000000
vn -1.000000 0.000000 0.000000
vn 0.000000 0.000000 1.000000
vn 0.000000 0.000000 1.000000
vn 0.000000 0.000000 1.000000
vn 0.000000 0.000000 1.000000
vn 1.000000 0.000000 0.000000
vn 1.000000 0.000000 0.000000
vn 1.000000 0.000000 0.000000
vn 1.000000 0.000000 0.000000
vn 0.000000 0.000000 1.000000
vn 0.000000 0.000000 1.000000
vn 0.000000 0.000000 1.000000
vn 0.000000 0.000000 1.000000
vn -1.000000 0.000000 0.000000
vn -1.000000 0.000000 0.000000
vn -1.000000 0.000000 0.000000
vn -1.000000 0.000000 0.000000
vn 0.000000 0.000000 -1.000000
vn 0.000000 0.000000 -1.000000
vn 0.000000 0.000000 -1.000000
vn 0.000000 0.000000 -1.000000
vn 1.000000 0.000000 0.000000
vn 1.000000 0.000000 0.000000
vn 1.000000 0.000000 0.000000
vn 1.000000 0.000000 0.000000
s off
g crate
usemtl initialShadingGroup
f 33/39/1 34/40/2 35/41/3 36/42/4
f 49/55/5 50/56/6 51/57/7 52/58/8
f 37/43/9 38/44/10 39/45/11 40/46/12
f 53/59/13 54/60/14 55/61/15 56/62/16
f 42/47/17 41/48/18 43/49/19 44/50/20
f 45/51/21 46/52/22 47/53/23 48/54/24
s 1
f 2/2/25 8/11/26 9/16/27 10/15/28
f 8/11/26 6/12/29 11/17/30 9/16/27
f 6/12/29 4/4/31 12/18/32 11/17/30
f 4/4/31 2/2/25 10/15/28 12/18/32
s 2
f 7/13/33 1/1/34 14/20/35 13/19/36
f 1/1/34 3/3/37 15/21/38 14/20/35
f 3/3/37 5/14/39 16/22/40 15/21/38
f 5/14/39 7/13/33 13/19/36 16/22/40
s 3
f 1/1/41 2/2/42 18/24/43 17/23/44
f 2/2/42 4/4/45 19/25/46 18/24/43
f 4/4/45 3/3/47 20/26/48 19/25/46
f 3/3/47 1/1/41 17/23/44 20/26/48
s 4
f 5/5/49 6/6/50 22/28/51 21/27/52
f 6/6/50 8/8/53 23/29/54 22/28/51
f 8/8/53 7/7/55 24/30/56 23/29/54
f 7/7/55 5/5/49 21/27/52 24/30/56
s 5
f 3/3/57 4/4/58 26/32/59 25/31/60
f 4/4/58 6/6/61 27/33/62 26/32/59
f 6/6/61 5/5/63 28/34/64 27/33/62
f 5/5/63 3/3/57 25/31/60 28/34/64
s 6
f 7/7/65 8/8/66 30/36/67 29/35/68
f 8/8/66 2/10/69 31/37/70 30/36/67
f 2/10/69 1/9/71 32/38/72 31/37/70
f 1/9/71 7/7/65 29/35/68 32/38/72
s off
f 17/23/73 18/24/74 34/40/75 33/39/76
f 18/24/77 19/25/78 35/41/79 34/40/80
f 19/25/81 20/26/82 36/42/83 35/41/84
f 20/26/85 17/23/86 33/39/87 36/42/88
f 21/27/89 22/28/90 38/44/91 37/43/92
f 22/28/93 23/29/94 39/45/95 38/44/96
f 23/29/97 24/30/98 40/46/99 39/45/100
f 24/30/101 21/27/102 37/43/103 40/46/104
f 10/15/105 9/16/106 41/48/107 42/47/108
f 9/16/109 11/17/110 43/49/111 41/48/112
f 11/17/113 12/18/114 44/50/115 43/49/116
f 12/18/117 10/15/118 42/47/119 44/50/120
f 13/19/121 14/20/122 46/52/123 45/51/124
f 14/20/125 15/21/126 47/53/127 46/52/128
f 15/21/129 16/22/130 48/54/131 47/53/132
f 16/22/133 13/19/134 45/51/135 48/54/136
f 25/31/137 26/32/138 50/56/139 49/55/140
f 26/32/141 27/33/142 51/57/143 50/56/144
f 27/33/145 28/34/146 52/58/147 51/57/148
f 28/34/149 25/31/150 49/55/151 52/58/152
f 29/35/153 30/36/154 54/60/155 53/59/156
f 30/36/157 31/37/158 55/61/159 54/60/160
f 31/37/161 32/38/162 56/62/163 55/61/164
f 32/38/165 29/35/166 53/59/167 56/62/168
